<?xml version="1.0" encoding="UTF-8" standalone="no"?>
<!-- Created with Inkscape (http://www.inkscape.org/) -->
<svg
   xmlns:dc="http://purl.org/dc/elements/1.1/"
   xmlns:cc="http://web.resource.org/cc/"
   xmlns:rdf="http://www.w3.org/1999/02/22-rdf-syntax-ns#"
   xmlns:svg="http://www.w3.org/2000/svg"
   xmlns="http://www.w3.org/2000/svg"
   xmlns:sodipodi="http://sodipodi.sourceforge.net/DTD/sodipodi-0.dtd"
   xmlns:inkscape="http://www.inkscape.org/namespaces/inkscape"
   width="333.17999"
   height="790.79999"
   id="svg5273"
   sodipodi:version="0.32"
   inkscape:version="0.45.1"
   version="1.0"
   sodipodi:docbase="E:\Images\Vector"
   sodipodi:docname="spykid.svg"
   inkscape:output_extension="org.inkscape.output.svg.inkscape">
  <defs
     id="defs5275" />
  <sodipodi:namedview
     id="base"
     pagecolor="#ffffff"
     bordercolor="#666666"
     borderopacity="1.0"
     gridtolerance="10000"
     guidetolerance="10"
     objecttolerance="10"
     inkscape:pageopacity="0.0"
     inkscape:pageshadow="2"
     inkscape:zoom="0.35"
     inkscape:cx="375"
     inkscape:cy="520"
     inkscape:document-units="px"
     inkscape:current-layer="layer1"
     width="333.18px"
     height="790.8px"
     inkscape:window-width="744"
     inkscape:window-height="573"
     inkscape:window-x="132"
     inkscape:window-y="174" />
  <metadata
     id="metadata5278">
    <rdf:RDF>
      <cc:Work
         rdf:about="">
        <dc:format>image/svg+xml</dc:format>
        <dc:type
           rdf:resource="http://purl.org/dc/dcmitype/StillImage" />
        <cc:license
           rdf:resource="http://web.resource.org/cc/PublicDomain" />
      </cc:Work>
      <cc:License
         rdf:about="http://web.resource.org/cc/PublicDomain">
        <cc:permits
           rdf:resource="http://web.resource.org/cc/Reproduction" />
        <cc:permits
           rdf:resource="http://web.resource.org/cc/Distribution" />
        <cc:permits
           rdf:resource="http://web.resource.org/cc/DerivativeWorks" />
      </cc:License>
    </rdf:RDF>
  </metadata>
  <g
     inkscape:label="Layer 1"
     inkscape:groupmode="layer"
     id="layer1"
     transform="translate(-29.481469,-141.60715)">
    <g
       id="g6091"
       transform="matrix(1.25,0,0,-1.25,134.71794,25.532587)">
      <path
         sodipodi:nodetypes="ccccccccccccccccccccccccscccccccscsccccccccc"
         id="path135"
         style="fill:#000000;fill-rule:nonzero;stroke:none"
         d="M 145.42446,-659.33781 L 120.01001,-418.62278 C 144.22822,-402.46226 185.26149,-371.04404 174.63076,-349.39888 L 174.78875,-354.09355 L 174.81133,-346.69041 C 155.00077,-292.99374 129.80563,-267.44517 118.56549,-259.65833 L 118.81377,-259.6809 L 118.06894,-259.31977 C 114.63821,-256.97243 112.60686,-255.91162 112.60686,-255.91162 L 96.672052,-249.05017 L 78.096482,-240.11222 L 77.577352,-232.00939 C 77.577352,-232.00939 102.35983,-223.16173 102.04384,-204.15732 C 102.04384,-204.15732 106.42253,-204.27017 115.11219,-196.07706 C 115.11219,-196.07706 188.82764,-197.2733 110.01125,-159.26448 L 116.51157,-133.4889 C 116.51157,-133.4889 126.05892,-108.97727 77.554782,-101.23557 C 26.590462,-93.087595 25.236222,-108.52586 25.236222,-108.52586 L 20.789822,-137.84502 L -14.487958,-152.78673 C -14.487958,-152.78673 -40.331248,-157.52655 5.7352619,-171.40744 C 5.7352619,-171.40744 3.2976419,-189.68959 13.206122,-189.03505 C 13.206122,-189.03505 7.4054819,-225.6445 42.615562,-237.87774 L -3.9926481,-252.02948 C -16.338748,-261.2157 -78.392001,-340.79006 -78.188646,-353.09248 C -78.024128,-363.26668 -68.885772,-372.58394 -68.885772,-372.58394 L -32.837828,-405.05788 L -25.795808,-408.24033 L -14.668528,-418.01338 C -14.826518,-448.79962 -19.272918,-475.68116 -19.272918,-475.68116 L -7.2879481,-478.59276 L -20.040318,-676.78485 C -20.040318,-676.78485 37.836227,-681.68935 40.742202,-672.86698 C 42.239757,-668.32048 65.050692,-533.9132 65.050692,-533.9132 C 65.050692,-533.9132 87.353051,-668.58568 91.635563,-676.37199 C 95.952967,-684.22174 140.88513,-674.64663 145.42446,-659.33781 z M -6.4754081,-378.85346 L -33.982523,-343.96941 C -33.982523,-343.96941 -6.1594181,-321.23082 -2.4578481,-316.40072 L -6.4754081,-378.85346 z M 118.0238,-384.92494 L 114.68335,-320.86969 L 140.59436,-357.41142 L 118.0238,-384.92494" />
      <path
         id="path139"
         style="fill:#ffffff;fill-rule:nonzero;stroke:none"
         d="M 114.1868,-393.02777 L 108.2056,-307.39506 L 147.34295,-355.08666 L 116.66956,-393.52432 L 122.24449,-409.75255 C 180.99566,-371.31489 169.25897,-349.918 169.25897,-349.918 C 143.41568,-259.02635 81.594912,-247.04139 81.594912,-247.04139 C 60.784862,-264.44329 39.884522,-246.7254 39.884522,-246.7254 L 0.79231191,-256.40817 C -11.598928,-259.36491 -68.612158,-340.23523 -68.612158,-340.23523 L -75.202768,-353.39386 C -69.921258,-373.43652 -21.845958,-404.08734 -21.845958,-404.08734 C -20.243448,-393.88545 -8.4390481,-385.2635 -8.4390481,-385.2635 L -39.473568,-342.92112 L 2.0336919,-309.94554 L -1.8935881,-385.66977 L 17.945932,-398.19643 C 44.759762,-418.69049 13.544672,-408.24033 13.544672,-408.24033 C 34.828712,-427.4253 11.061912,-417.44911 11.061912,-417.44911 C 27.628702,-437.28864 7.7891819,-424.76198 7.7891819,-424.76198 C 17.246252,-452.56891 -9.7255681,-419.88673 -9.7255681,-419.88673 L -10.041558,-468.63914 C 40.967902,-503.69122 119.69402,-474.48492 119.69402,-474.48492 L 116.21815,-422.09865 C 116.21815,-422.09865 77.238792,-454.28427 94.911542,-427.53815 C 94.911542,-427.53815 67.714022,-442.95385 93.557312,-418.46479 C 93.557312,-418.46479 53.652562,-440.22281 88.117802,-411.67105 C 88.117802,-411.67105 48.664472,-430.24662 96.717192,-395.35254 L 114.1868,-393.02777" />
      <path
         id="path137"
         style="fill:#000000;fill-rule:nonzero;stroke:none"
         d="M 31.397992,-670.93907 C 31.397992,-670.93907 33.023072,-682.96918 25.213652,-693.21622 C 25.213652,-693.21622 1.5371419,-727.45576 -19.318058,-717.77299 C -19.318058,-717.77299 -39.202718,-711.72408 -6.4528381,-666.13154 L 27.922122,-669.5397" />
      <path
         id="path141"
         style="fill:#ffffff;fill-opacity:1;fill-rule:nonzero;stroke:none"
         d="M 1.8531219,-390.90614 C 1.8531219,-390.90614 45.075752,-416.45601 10.565362,-404.33562 L 7.9020319,-404.49361 C 7.9020319,-404.49361 35.009282,-429.32123 3.5459219,-410.81337 C 3.5459219,-410.81337 28.396102,-439.7714 -0.40392809,-415.82403 C -0.40392809,-415.82403 21.489512,-449.88301 -6.8591081,-418.71307 L -14.555668,-410.29425 C -14.555668,-410.29425 -24.667278,-399.05411 -4.7149081,-388.1751 L 1.8531219,-390.90614" />
      <path
         id="path143"
         style="fill:#ffffff;fill-rule:nonzero;stroke:none"
         d="M 44.127782,-241.64702 C 59.182352,-261.14799 75.771712,-245.16803 75.771712,-245.16803 L 73.582362,-234.46958 C 73.582362,-234.46958 56.519022,-244.31035 46.678262,-239.05141 L 44.127782,-241.64702" />
      <path
         id="path361"
         style="fill:#ffffff;fill-rule:nonzero;stroke:none"
         d="M 106.89651,-159.91902 C 57.534702,-137.37104 24.017412,-141.54659 24.017412,-141.54659 L -9.5675781,-152.78673 C 74.823742,-155.42748 133.05579,-182.46701 133.05579,-182.46701 C 133.05579,-182.46701 139.82696,-186.01059 138.49529,-188.65135 C 138.49529,-188.65135 149.10346,-186.66514 133.19121,-175.40243 L 106.89651,-159.91902" />
      <path
         id="path363"
         style="fill:#ffffff;fill-rule:nonzero;stroke:none"
         d="M 108.3636,-143.69079 C 108.3636,-143.69079 77.148512,-120.98481 27.628702,-127.19172 C 27.628702,-127.19172 29.524632,-101.86755 50.312122,-103.56034 C 50.312122,-103.56034 80.646952,-104.62116 106.71595,-118.07321 C 106.71595,-118.07321 117.57239,-121.9102 108.3636,-143.69079" />
      <path
         id="path365"
         style="fill:#ffffff;fill-rule:nonzero;stroke:none"
         d="M 15.643742,-171.02374 L 18.442492,-175.37986 L 25.665062,-168.15728 L 37.469472,-164.86198 L 46.678262,-164.86198 L 63.019342,-166.3742 C 63.019342,-166.3742 82.430022,-168.33784 92.925332,-173.03252 L 98.929102,-183.34727 L 103.69149,-182.51216 C 103.69149,-182.51216 115.92473,-177.50149 111.86203,-192.69148 C 111.86203,-192.69148 108.3636,-196.6639 103.73663,-199.64321 L 98.816252,-189.77988 C 98.816252,-189.77988 109.33413,-220.18242 65.750382,-233.70219 C 65.750382,-233.70219 51.260082,-241.69216 37.627462,-229.61691 C 37.627462,-229.61691 11.558462,-215.75859 17.539662,-183.75354 L 14.808632,-182.87328 C 14.808632,-182.87328 9.3916919,-191.65323 7.7440419,-175.425 C 7.7440419,-175.425 8.5791519,-159.15163 15.643742,-171.02374" />
      <path
         id="path367"
         style="fill:#000000;fill-rule:nonzero;stroke:none"
         d="M 52.388612,-184.20495 C 52.388612,-184.20495 50.898952,-194.47455 40.719632,-202.62252 L 41.329032,-203.66077 L 51.914632,-210.16109 L 54.555382,-206.23381 L 46.091422,-202.82566 C 46.091422,-202.82566 51.440642,-194.42941 52.388612,-184.20495" />
      <path
         id="path369"
         style="fill:#ffffff;fill-rule:nonzero;stroke:none"
         d="M 9.2562719,-164.43314 L 11.242482,-158.51965 C 11.242482,-158.51965 -43.265428,-148.67889 -0.58449809,-166.39678 L 5.3289919,-169.03753 L 9.2562719,-164.43314" />
      <path
         id="path371"
         style="fill:#ffffff;fill-rule:nonzero;stroke:none"
         d="M 116.26329,-181.29334 C 116.26329,-181.29334 154.33983,-187.18426 116.26329,-191.78866 L 116.26329,-181.29334" />
      <path
         id="path373"
         style="fill:#000000;fill-rule:nonzero;stroke:none"
         d="M 27.876982,-129.71962 C 27.876982,-129.71962 66.969192,-123.08387 106.71595,-146.26384 L 106.03883,-153.55413 C 106.03883,-153.55413 76.245692,-137.66445 26.567892,-136.33279 L 27.876982,-129.71962" />
      <path
         id="path375"
         style="fill:#000000;fill-rule:nonzero;stroke:#000000;stroke-width:1.01811028"
         d="M 15.830205,-172.32696 C 15.830205,-172.32696 35.495781,-163.14699 45.024213,-177.80788 L 59.000825,-179.63485 C 59.000825,-179.63485 67.241641,-166.82349 92.643004,-180.89794 L 98.355389,-179.65741 L 100.25172,-182.72492 L 92.010901,-187.01041 C 92.010901,-187.01041 69.16137,-209.02429 57.081086,-184.55189 L 45.024213,-182.72492 C 45.024213,-182.72492 32.96735,-202.30284 14.565989,-176.61246 L 15.830205,-172.32696" />
      <path
         id="path379"
         style="fill:#000000;fill-rule:nonzero;stroke:none"
         d="M 32.345952,-208.73915 C 32.345952,-208.73915 51.305222,-225.89277 75.162302,-211.80874 L 73.943492,-218.53477 L 71.505872,-216.70655 C 71.505872,-216.70655 51.305222,-230.15861 33.564762,-211.80874 L 29.885762,-214.24636 L 32.345952,-208.73915" />
      <path
         id="path381"
         style="fill:#000000;fill-rule:nonzero;stroke:none"
         d="M 102.04384,-664.86759 C 102.04384,-664.86759 100.44133,-676.8977 108.25074,-687.14474 C 108.25074,-687.14474 131.92726,-721.38428 152.75989,-711.7015 C 152.75989,-711.7015 172.64455,-705.65259 139.89467,-660.03749 L 105.54228,-663.46822" />
      <path
         sodipodi:nodetypes="cccsccc"
         id="rect2035"
         d="M 86.975795,-393.83193 C 88.181902,-392.1079 89.910842,-392.57043 91.59834,-393.80265 L 125.81036,-417.48721 C 127.49786,-418.71941 127.8854,-421.09934 126.6793,-422.82338 C 125.47319,-424.5474 123.14367,-424.94334 121.45617,-423.71113 L 88.38539,-397.94162 C 86.69788,-396.70941 85.769682,-395.55596 86.975795,-393.83193 z "
         style="fill:#ffffff;fill-opacity:1;fill-rule:evenodd;stroke:#000000;stroke-width:2;stroke-linecap:round;stroke-linejoin:miter;stroke-miterlimit:4;stroke-dasharray:none;stroke-dashoffset:0;stroke-opacity:1" />
      <path
         transform="matrix(9.0374119e-2,0,0,-9.2330128e-2,38.761222,-330.47886)"
         d="M 582.85715 582.36218 A 172.85715 172.85715 0 1 1  237.14285,582.36218 A 172.85715 172.85715 0 1 1  582.85715 582.36218 z"
         sodipodi:ry="172.85715"
         sodipodi:rx="172.85715"
         sodipodi:cy="582.36218"
         sodipodi:cx="410"
         id="path2077"
         style="fill:#ffffff;fill-opacity:1;fill-rule:evenodd;stroke:#000000;stroke-width:21.89456177;stroke-linecap:round;stroke-linejoin:miter;stroke-miterlimit:4;stroke-dasharray:none;stroke-dashoffset:0;stroke-opacity:1"
         sodipodi:type="arc" />
      <path
         id="path2079"
         d="M 65.373276,-391.35968 C 64.731954,-387.23929 65.564913,-382.9992 68.076041,-379.52907 C 71.390463,-374.94885 76.808611,-372.80582 82.300609,-373.31146 C 82.002927,-373.02481 81.687358,-372.75138 81.351264,-372.49753 C 76.365632,-368.73187 69.052895,-370.19027 65.028082,-375.75218 C 61.418485,-380.74028 61.685987,-387.33398 65.373276,-391.35968 z "
         style="fill:#ffffff;fill-opacity:0.66081872;fill-rule:evenodd;stroke:#000000;stroke-width:0.80000001;stroke-linecap:round;stroke-linejoin:round;stroke-miterlimit:4;stroke-dasharray:none;stroke-dashoffset:0;stroke-opacity:1" />
      <path
         id="path395"
         style="fill:#ffffff;fill-rule:nonzero;stroke:none"
         d="M -12.546888,-666.94408 C -12.546888,-666.94408 18.284492,-678.92905 35.438122,-665.22872 L 64.576712,-500.68934 L 98.861392,-666.94408 C 98.861392,-666.94408 114.20937,-683.37545 138.26959,-658.36727 C 139.3304,-657.26131 138.26959,-651.50582 138.26959,-651.50582 L 117.70781,-483.53571 C 117.70781,-483.53571 49.138452,-502.4047 1.1534419,-483.53571 L -14.262258,-661.798" />
      <path
         id="path567"
         style="fill:#ffffff;fill-rule:nonzero;stroke:none;stroke-width:4.67999983;stroke-linecap:butt;stroke-linejoin:miter;stroke-miterlimit:4;stroke-dasharray:none"
         d="M -8.5518981,-677.64253 C -8.5518981,-677.64253 10.497652,-682.72091 24.468832,-677.64253 C 24.468832,-677.64253 15.576022,-714.45511 -14.894228,-713.19116 C -14.894228,-713.19116 -32.679828,-706.82626 -8.5518981,-677.64253" />
      <path
         id="path569"
         style="fill:#ffffff;fill-rule:nonzero;stroke:none;stroke-width:4.67999983;stroke-linecap:butt;stroke-linejoin:miter;stroke-miterlimit:4;stroke-dasharray:none"
         d="M 110.80122,-680.17043 C 110.80122,-680.17043 129.85077,-681.43438 138.74357,-668.74973 C 138.74357,-668.74973 164.13545,-699.21999 150.16427,-705.56231 C 150.16427,-705.56231 127.3003,-717.00559 110.80122,-680.17043" />
      <path
         id="path585"
         style="fill:#000000;fill-rule:nonzero;stroke:none;stroke-width:4.67999983;stroke-linecap:butt;stroke-linejoin:miter;stroke-miterlimit:4;stroke-dasharray:none"
         d="M -22.365088,-701.58989 C -22.365088,-701.58989 0.54403191,-716.62189 24.875102,-679.40303 C 24.875102,-679.40303 10.565362,-719.46578 -23.064768,-705.15604 L -22.365088,-701.58989" />
      <path
         id="path587"
         style="fill:#000000;fill-rule:nonzero;stroke:none;stroke-width:4.67999983;stroke-linecap:butt;stroke-linejoin:miter;stroke-miterlimit:4;stroke-dasharray:none"
         d="M 112.15545,-677.25883 C 112.15545,-677.25883 137.90846,-714.47768 153.64014,-691.56857 C 153.64014,-691.56857 147.20753,-725.1987 112.15545,-677.25883" />
      <path
         id="path597"
         style="fill:#000000;fill-rule:nonzero;stroke:none;stroke-width:4.67999983;stroke-linecap:butt;stroke-linejoin:miter;stroke-miterlimit:4;stroke-dasharray:none"
         d="M 30.878862,-247.01882 C 30.878862,-247.01882 58.392382,-281.1455 90.465142,-248.03449 C 90.465142,-248.03449 59.904602,-292.85962 30.878862,-247.01882" />
      <path
         id="path623"
         style="fill:#ffffff;fill-rule:nonzero;stroke:none;stroke-width:4.67999983;stroke-linecap:butt;stroke-linejoin:miter;stroke-miterlimit:4;stroke-dasharray:none"
         d="M -54.686128,-370.9989 L -39.879838,-345.49417 L -34.936888,-339.73868 L -24.238438,-323.28474 L -42.340028,-310.93864 C -42.340028,-310.93864 -56.333778,-328.20512 -61.254158,-338.90357 L -58.793968,-371.81144 L -54.686128,-370.9989" />
      <path
         id="path393"
         style="fill:#ffffff;fill-rule:nonzero;stroke:none"
         d="M 113.0357,-396.70677 L 119.37803,-413.92811 C 119.37803,-413.92811 74.959172,-453.83286 101.25387,-421.62467 C 101.25387,-421.62467 70.422492,-440.22281 101.25387,-413.4767 C 101.25387,-413.4767 59.994892,-435.23472 100.35105,-404.40333 C 100.35105,-404.40333 53.652562,-425.70994 100.35105,-398.061 L 113.0357,-396.70677" />
    </g>
  </g>
</svg>
